<svg xmlns="http://www.w3.org/2000/svg" width="800" height="600" viewBox="0 0 800 600" fill="none">
  <g clip-path="url(#clip0_1_2)">
    <!-- Background elements -->
    <path d="M655 538C655 538 757 450 755 348C753 246 687 158 609 125.5C531 93 430 99 368 137.5C306 176 294 219 232 246C170 273 80 275 40 337C0 399 41 506 119 549C197 592 332 578 405 555C478 532 655 538 655 538Z" fill="#F3F4F6"/>
    
    <!-- Project board -->
    <rect x="200" y="120" width="400" height="280" rx="8" fill="#FFFFFF" stroke="#E5E7EB" stroke-width="2"/>
    <rect x="220" y="140" width="360" height="40" rx="4" fill="#F9FAFB"/>
    <rect x="235" y="155" width="100" height="10" rx="2" fill="#4F46E5"/>
    <rect x="455" y="155" width="60" height="10" rx="2" fill="#9CA3AF"/>
    <rect x="525" y="155" width="40" height="10" rx="2" fill="#9CA3AF"/>
    
    <!-- Task cards -->
    <rect x="220" y="200" width="110" height="90" rx="4" fill="#F8F9FF" stroke="#EAECF5" stroke-width="1"/>
    <rect x="230" y="210" width="90" height="8" rx="2" fill="#4F46E5"/>
    <rect x="230" y="226" width="60" height="4" rx="1" fill="#D1D5DB"/>
    <rect x="230" y="236" width="70" height="4" rx="1" fill="#D1D5DB"/>
    <rect x="230" y="246" width="65" height="4" rx="1" fill="#D1D5DB"/>
    <rect x="230" y="270" width="40" height="12" rx="6" fill="#EEF2FF"/>
    <rect x="275" y="270" width="40" height="12" rx="6" fill="#EEF2FF"/>
    
    <rect x="345" y="200" width="110" height="90" rx="4" fill="#F8F9FF" stroke="#EAECF5" stroke-width="1"/>
    <rect x="355" y="210" width="90" height="8" rx="2" fill="#10B981"/>
    <rect x="355" y="226" width="60" height="4" rx="1" fill="#D1D5DB"/>
    <rect x="355" y="236" width="70" height="4" rx="1" fill="#D1D5DB"/>
    <rect x="355" y="246" width="65" height="4" rx="1" fill="#D1D5DB"/>
    <rect x="355" y="270" width="40" height="12" rx="6" fill="#ECFDF5"/>
    <rect x="400" y="270" width="40" height="12" rx="6" fill="#ECFDF5"/>
    
    <rect x="470" y="200" width="110" height="90" rx="4" fill="#F8F9FF" stroke="#EAECF5" stroke-width="1"/>
    <rect x="480" y="210" width="90" height="8" rx="2" fill="#F59E0B"/>
    <rect x="480" y="226" width="60" height="4" rx="1" fill="#D1D5DB"/>
    <rect x="480" y="236" width="70" height="4" rx="1" fill="#D1D5DB"/>
    <rect x="480" y="246" width="65" height="4" rx="1" fill="#D1D5DB"/>
    <rect x="480" y="270" width="40" height="12" rx="6" fill="#FEF3C7"/>
    <rect x="525" y="270" width="40" height="12" rx="6" fill="#FEF3C7"/>
    
    <rect x="220" y="300" width="110" height="90" rx="4" fill="#F8F9FF" stroke="#EAECF5" stroke-width="1"/>
    <rect x="230" y="310" width="90" height="8" rx="2" fill="#9333EA"/>
    <rect x="230" y="326" width="60" height="4" rx="1" fill="#D1D5DB"/>
    <rect x="230" y="336" width="70" height="4" rx="1" fill="#D1D5DB"/>
    <rect x="230" y="346" width="65" height="4" rx="1" fill="#D1D5DB"/>
    <rect x="230" y="370" width="40" height="12" rx="6" fill="#F5F3FF"/>
    <rect x="275" y="370" width="40" height="12" rx="6" fill="#F5F3FF"/>
    
    <!-- Person 1 -->
    <circle cx="150" cy="350" r="50" fill="#F3F4F6"/>
    <circle cx="150" cy="320" r="20" fill="#4F46E5"/>
    <path d="M130 355C130 344.507 138.507 336 150 336C161.493 336 170 344.507 170 355V370H130V355Z" fill="#4F46E5"/>
    
    <!-- Person 2 -->
    <circle cx="650" cy="300" r="50" fill="#F3F4F6"/>
    <circle cx="650" cy="270" r="20" fill="#10B981"/>
    <path d="M630 305C630 294.507 638.507 286 650 286C661.493 286 670 294.507 670 305V320H630V320V305Z" fill="#10B981"/>
    
    <!-- Person 3 -->
    <circle cx="400" cy="450" r="50" fill="#F3F4F6"/>
    <circle cx="400" cy="420" r="20" fill="#F59E0B"/>
    <path d="M380 455C380 444.507 388.507 436 400 436C411.493 436 420 444.507 420 455V470H380V455Z" fill="#F59E0B"/>
    
    <!-- Connection lines -->
    <path d="M185 320L220 250" stroke="#E5E7EB" stroke-width="2" stroke-dasharray="4 4"/>
    <path d="M615 270L570 245" stroke="#E5E7EB" stroke-width="2" stroke-dasharray="4 4"/>
    <path d="M400 400L400 370" stroke="#E5E7EB" stroke-width="2" stroke-dasharray="4 4"/>
    
    <!-- Connection dots -->
    <circle cx="220" cy="250" r="5" fill="#4F46E5"/>
    <circle cx="570" cy="245" r="5" fill="#10B981"/>
    <circle cx="400" cy="370" r="5" fill="#F59E0B"/>
  </g>
  <defs>
    <clipPath id="clip0_1_2">
      <rect width="800" height="600" fill="white"/>
    </clipPath>
  </defs>
</svg> 